<svg width="25" height="24" viewBox="0 0 25 24" fill="none" xmlns="http://www.w3.org/2000/svg">
<path d="M2.75 12.204C2.75 9.915 2.75 8.771 3.27 7.823C3.788 6.874 4.737 6.286 6.634 5.108L8.634 3.867C10.639 2.622 11.642 2 12.75 2C13.858 2 14.86 2.622 16.866 3.867L18.866 5.108C20.763 6.286 21.712 6.874 22.231 7.823C22.75 8.771 22.75 9.915 22.75 12.203V13.725C22.75 17.625 22.75 19.576 21.578 20.788C20.407 22 18.521 22 14.75 22H10.75C6.979 22 5.093 22 3.922 20.788C2.75 19.576 2.75 17.626 2.75 13.725V12.204Z" stroke="#262626" stroke-width="1.5"/>
<path d="M9.75 16C10.6 16.63 11.635 17 12.75 17C13.865 17 14.9 16.63 15.75 16" stroke="#262626" stroke-width="1.5" stroke-linecap="round"/>
</svg>
