<svg width="25" height="24" viewBox="0 0 25 24" fill="none" xmlns="http://www.w3.org/2000/svg">
<path d="M3.75 12C3.75 15.771 3.75 19.657 5.068 20.828C6.386 22 8.508 22 12.75 22C16.993 22 19.114 22 20.432 20.828C21.75 19.657 21.75 15.771 21.75 12M15.41 14.202L21.418 12.4C22.013 12.221 22.311 12.132 22.5 11.918C22.537 11.8762 22.5705 11.8314 22.6 11.784C22.75 11.541 22.75 11.231 22.75 10.609C22.75 8.159 22.75 6.934 22.077 6.107C21.9476 5.94786 21.8021 5.80243 21.643 5.673C20.816 5 19.591 5 17.141 5H8.36C5.91 5 4.685 5 3.858 5.673C3.698 5.803 3.553 5.948 3.424 6.107C2.75 6.934 2.75 8.159 2.75 10.609C2.75 11.231 2.75 11.541 2.9 11.784C2.93 11.831 2.963 11.876 3 11.918C3.19 12.132 3.487 12.221 4.082 12.4L10.09 14.202M7.25 5C8.073 4.98 8.91 4.455 9.19 3.68L9.225 3.577L9.25 3.5C9.292 3.373 9.314 3.31 9.336 3.254C9.47726 2.90281 9.71529 2.59892 10.0224 2.37765C10.3295 2.15638 10.6932 2.02681 11.071 2.004C11.13 2 11.198 2 11.33 2H14.168C14.301 2 14.368 2 14.428 2.004C14.8058 2.02681 15.1695 2.15638 15.4766 2.37765C15.7837 2.59892 16.0217 2.90281 16.163 3.254C16.186 3.31 16.207 3.374 16.249 3.5L16.275 3.577C16.293 3.63 16.301 3.657 16.31 3.68C16.59 4.455 17.426 4.98 18.249 5M14.75 12.5H10.75C10.6174 12.5 10.4902 12.5527 10.3964 12.6464C10.3027 12.7402 10.25 12.8674 10.25 13V15.162C10.25 15.2619 10.2799 15.3594 10.3359 15.4421C10.3919 15.5248 10.4713 15.5889 10.564 15.626L11.264 15.906C12.2179 16.2877 13.2821 16.2877 14.236 15.906L14.936 15.626C15.0287 15.5889 15.1081 15.5248 15.1641 15.4421C15.2201 15.3594 15.25 15.2619 15.25 15.162V13C15.25 12.8674 15.1973 12.7402 15.1036 12.6464C15.0098 12.5527 14.8826 12.5 14.75 12.5Z" stroke="#262626" stroke-width="1.5"/>
</svg>
