<svg width="25" height="24" viewBox="0 0 25 24" fill="none" xmlns="http://www.w3.org/2000/svg">
<path d="M12.25 22C17.773 22 22.25 17.523 22.25 12C22.25 6.477 17.773 2 12.25 2C6.727 2 2.25 6.477 2.25 12C2.25 13.6 2.626 15.112 3.293 16.453C3.471 16.809 3.53 17.216 3.427 17.601L2.832 19.827C2.77307 20.0473 2.77312 20.2792 2.83216 20.4995C2.89119 20.7197 3.00712 20.9206 3.16831 21.0819C3.32951 21.2432 3.5303 21.3593 3.75053 21.4184C3.97075 21.4776 4.20267 21.4778 4.423 21.419L6.649 20.823C7.03541 20.7258 7.44403 20.7731 7.798 20.956C9.18092 21.6446 10.7051 22.0021 12.25 22Z" stroke="#262626" stroke-width="1.5"/>
<path d="M8.25 10.5H16.25M8.25 14H13.75" stroke="#262626" stroke-width="1.5" stroke-linecap="round"/>
</svg>
